Coordinates
version=1
nRows=9
nColumns=24
inDegrees=yes

Units are S.I. units (second, meters, Newtons, ...)
Angles are in degrees.

endheader
time	pelvis_tilt	pelvis_list	pelvis_rotation	pelvis_tx	pelvis_ty	pelvis_tz	hip_flexion_r	hip_adduction_r	hip_rotation_r	knee_angle_r	ankle_angle_r	subtalar_angle_r	mtp_angle_r	hip_flexion_l	hip_adduction_l	hip_rotation_l	knee_angle_l	ankle_angle_l	subtalar_angle_l	mtp_angle_l	lumbar_extension	lumbar_bending	lumbar_rotation
      4.84000000	    -18.09812109	      5.17310297	     -1.17022327	     -1.02316768	     -0.02119240	     -0.33257829	     34.78944316	     -5.56144798	      0.66406322	    -63.35526764	     -4.46989459	     -9.07290893	     17.72109773	     27.26633981	      8.00466855	     -7.28980040	    -23.01330620	      7.03933817	     -3.41808493	      6.55953513	     21.71162874	     -6.04194808	    -10.94368708
      4.84500000	    -18.07816244	      4.82215491	     -1.00392929	     -1.01720673	     -0.02017727	     -0.33313100	     35.40330678	     -5.25514188	      0.22147136	    -62.72416614	     -3.85407912	     -9.10434463	     17.62986578	     26.51921413	      7.81489159	     -6.99340348	    -22.51243918	      7.15521995	     -3.28742564	      6.42685257	     21.65742300	     -5.77315114	    -11.32248128
      4.85000000	    -18.06473771	      4.48714344	     -0.84530887	     -1.01126423	     -0.01925126	     -0.33364562	     36.01413002	     -4.97291740	     -0.23677370	    -62.03441419	     -3.29504025	     -9.16627807	     17.50945511	     25.77274528	      7.63194944	     -6.66190392	    -21.99390767	      7.30700729	     -3.14762320	      6.31063060	     21.61368903	     -5.52195031	    -11.68599250
      4.85500000	    -18.03517440	      4.14206826	     -0.63621993	     -1.00535597	     -0.01832086	     -0.33419584	     36.56185304	     -4.72027628	     -0.76064782	    -61.24775488	     -2.75641936	     -9.27006888	     17.32456837	     25.02752525	      7.44530237	     -6.35746103	    -21.49972958	      7.39062288	     -2.99334814	      6.15652794	     21.54081014	     -5.28049429	    -12.12324726
      4.86000000	    -18.02006049	      3.81120621	     -0.45282228	     -0.99945994	     -0.01748593	     -0.33470059	     37.11438801	     -4.47771397	     -1.27501587	    -60.40184059	     -2.25990064	     -9.34378404	     17.10993870	     24.29457376	      7.25410254	     -6.06294563	    -20.99258825	      7.50409287	     -2.83723364	      6.00272008	     21.49065625	     -5.04475482	    -12.51862767
      4.86500000	    -18.02222526	      3.48993299	     -0.27566139	     -0.99357307	     -0.01673347	     -0.33518287	     37.66513665	     -4.25078924	     -1.79396751	    -59.48919739	     -1.79617908	     -9.39360499	     16.89143975	     23.58506107	      7.05874937	     -5.79492685	    -20.48673196	      7.61325236	     -2.67370851	      5.86306056	     21.46075882	     -4.81636840	    -12.89166575
      4.87000000	    -18.03261787	      3.17944276	     -0.10634013	     -0.98769326	     -0.01606303	     -0.33562148	     38.20477568	     -4.03786299	     -2.31720110	    -58.51405180	     -1.36671674	     -9.41854040	     16.67203072	     22.88210462	      6.86151399	     -5.53061271	    -19.97125795	      7.74175667	     -2.49885470	      5.73874653	     21.44361342	     -4.60094966	    -13.25493814
      4.87500000	    -18.00320135	      2.88972977	      0.10226429	     -0.98183820	     -0.01539677	     -0.33607269	     38.66950516	     -3.87745868	     -2.88307334	    -57.47243087	     -0.95999421	     -9.47030656	     16.35337796	     22.14335355	      6.68935548	     -5.27147547	    -19.46193559	      7.83689805	     -2.27641654	      5.56972492	     21.37486185	     -4.42434445	    -13.67205640
      4.88000000	    -18.03298289	      2.59279117	      0.26412460	     -0.97598037	     -0.01485388	     -0.33650082	     39.17901620	     -3.69571451	     -3.42330441	    -56.36149399	     -0.57661720	     -9.39663555	     16.13209984	     21.47982678	      6.48276007	     -5.11549821	    -18.96220617	      7.92415709	     -2.09035462	      5.45848969	     21.37900840	     -4.21250887	    -14.00271010
